<svg height="463pt" viewBox="0 -20 463.7635 463" width="463pt" xmlns="http://www.w3.org/2000/svg"><path d="m435.410156 28.5c-37.488281-37.492188-98.277344-37.492188-135.765625 0l-67.882812 67.882812-67.878907-67.882812c-37.488281-37.492188-98.277343-37.492188-135.765624 0-37.488282 37.492188-37.488282 98.269531 0 135.761719l203.644531 203.648437 203.648437-203.648437c37.488282-37.492188 37.488282-98.269531 0-135.761719zm0 0" fill="#f55648"/><path d="m415.761719 349.910156-1.285157-2.296875c-10.875-19.394531-27.085937-35.253906-46.714843-45.703125 19.628906-10.449218 35.839843-26.3125 46.714843-45.703125l1.285157-2.296875 1.289062 2.296875c10.875 19.390625 27.085938 35.253907 46.710938 45.703125-19.625 10.449219-35.835938 26.308594-46.710938 45.703125zm0 0" fill="#fbb540"/><path d="m347.761719 423.910156-.964844-1.722656c-8.152344-14.546875-20.3125-26.445312-35.035156-34.277344 14.722656-7.832031 26.882812-19.734375 35.035156-34.28125l.964844-1.71875.96875 1.71875c8.152343 14.546875 20.3125 26.449219 35.03125 34.28125-14.71875 7.832032-26.878907 19.730469-35.03125 34.277344zm0 0" fill="#f3af3e"/><g fill="#b94137"><path d="m191.761719 151.910156c0 8.835938-7.160157 16-16 16-8.835938 0-16-7.164062-16-16 0-8.835937 7.164062-16 16-16 8.839843 0 16 7.164063 16 16zm0 0"/><path d="m303.761719 151.910156c0 8.835938-7.160157 16-16 16-8.835938 0-16-7.164062-16-16 0-8.835937 7.164062-16 16-16 8.839843 0 16 7.164063 16 16zm0 0"/><path d="m231.761719 230.484375c-18.667969-.003906-36.917969-5.542969-52.4375-15.917969-3.675781-2.453125-4.667969-7.421875-2.214844-11.097656 2.449219-3.675781 7.417969-4.667969 11.09375-2.214844 26.363281 17.640625 60.757813 17.640625 87.121094 0 3.675781-2.453125 8.644531-1.460937 11.09375 2.214844 2.453125 3.675781 1.460937 8.644531-2.214844 11.097656-15.519531 10.375-33.769531 15.914063-52.441406 15.917969zm0 0"/></g></svg>